<svg xmlns="http://www.w3.org/2000/svg" xmlns:xlink="http://www.w3.org/1999/xlink" width="151" height="37" viewBox="0 0 151 37">
  <defs>
    <clipPath id="clip-Artboard_3">
      <rect width="151" height="37"/>
    </clipPath>
  </defs>
  <g id="Artboard_3" data-name="Artboard – 3" clip-path="url(#clip-Artboard_3)">
    <rect width="151" height="37" fill="#fff"/>
    <path id="Subtraction_122" data-name="Subtraction 122" d="M-10351.666-9095.759a.522.522,0,0,1-.521-.523.522.522,0,0,1,.521-.522,14.978,14.978,0,0,0,10.662-4.415,15.305,15.305,0,0,0,1.568-1.838c.2.255.421.529.681.837a16.524,16.524,0,0,1-1.51,1.74A16.026,16.026,0,0,1-10351.666-9095.759Zm0-5.013a11.119,11.119,0,0,1-11.105-11.107,11.119,11.119,0,0,1,11.105-11.107,11.085,11.085,0,0,1,9.315,5.063,13.161,13.161,0,0,0-.466,1.255,10.067,10.067,0,0,0-8.85-5.273,10.072,10.072,0,0,0-10.06,10.063,10.072,10.072,0,0,0,10.06,10.062,10,10,0,0,0,5.646-1.736,10.082,10.082,0,0,0,3.648-4.465c.164.41.354.833.563,1.255a11.2,11.2,0,0,1-4.018,4.33A11.078,11.078,0,0,1-10351.666-9100.771Zm-12.812-19.5a.525.525,0,0,1-.336-.119.526.526,0,0,1-.182-.477l.557-3.9a.524.524,0,0,1,.517-.448.5.5,0,0,1,.076.006.519.519,0,0,1,.345.2.514.514,0,0,1,.1.386l-.286,2a15.98,15.98,0,0,1,5.422-3.979,16.015,16.015,0,0,1,6.6-1.4,16.021,16.021,0,0,1,11.4,4.721c.3.3.58.6.829.894-.229.255-.46.525-.686.806-.28-.331-.577-.654-.883-.96a14.978,14.978,0,0,0-10.662-4.417,14.976,14.976,0,0,0-6.22,1.335,14.956,14.956,0,0,0-5.094,3.779l1.681-.56a.523.523,0,0,1,.168-.028.516.516,0,0,1,.49.358.526.526,0,0,1-.328.661l-3.345,1.113A.525.525,0,0,1-10364.478-9120.271Z" transform="translate(10369.785 9130.76)" fill="#ed9f15" stroke="#ed9f15" stroke-width="1.3"/>
    <g id="Group_46873" data-name="Group 46873" transform="translate(2 11.673)" opacity="0.346">
      <g id="Group_46828" data-name="Group 46828" transform="translate(12.82 22.036)">
        <g id="Group_46827" data-name="Group 46827">
          <path id="Path_53908" data-name="Path 53908" d="M204.731,491.587c-.178-.025-.356-.054-.532-.086a.522.522,0,1,0-.185,1.028c.187.034.379.065.569.092a.522.522,0,1,0,.148-1.034Z" transform="translate(-203.585 -491.493)" fill="#ed9f15"/>
        </g>
      </g>
      <g id="Group_46830" data-name="Group 46830" transform="translate(9.715 21.135)">
        <g id="Group_46829" data-name="Group 46829">
          <path id="Path_53909" data-name="Path 53909" d="M155.98,477.588c-.329-.108-.658-.229-.979-.36a.522.522,0,1,0-.394.967c.343.14.7.269,1.047.385a.522.522,0,1,0,.326-.992Z" transform="translate(-154.282 -477.19)" fill="#ed9f15"/>
        </g>
      </g>
      <g id="Group_46832" data-name="Group 46832" transform="translate(0.165 8.965)">
        <g id="Group_46831" data-name="Group 46831">
          <path id="Path_53910" data-name="Path 53910" d="M3.852,285.382c-.074-.338-.137-.683-.187-1.026a.522.522,0,0,0-1.033.151c.054.366.121.735.2,1.1a.522.522,0,1,0,1.02-.223Z" transform="translate(-2.626 -283.91)" fill="#ed9f15"/>
        </g>
      </g>
      <g id="Group_46834" data-name="Group 46834" transform="translate(0.306 2.546)">
        <g id="Group_46833" data-name="Group 46833">
          <path id="Path_53911" data-name="Path 53911" d="M5.763,182.008a.522.522,0,0,0-.642.366c-.1.357-.185.722-.258,1.085a.522.522,0,1,0,1.024.206c.068-.34.149-.681.241-1.015A.522.522,0,0,0,5.763,182.008Z" transform="translate(-4.853 -181.989)" fill="#ed9f15"/>
        </g>
      </g>
      <g id="Group_46836" data-name="Group 46836" transform="translate(0.964 12.095)">
        <g id="Group_46835" data-name="Group 46835">
          <path id="Path_53912" data-name="Path 53912" d="M16.713,334.933c-.142-.315-.275-.64-.4-.964a.522.522,0,1,0-.98.362c.128.347.271.694.423,1.031a.522.522,0,0,0,.952-.43Z" transform="translate(-15.306 -333.627)" fill="#ed9f15"/>
        </g>
      </g>
      <g id="Group_46838" data-name="Group 46838" transform="translate(0 5.736)">
        <g id="Group_46837" data-name="Group 46837">
          <path id="Path_53913" data-name="Path 53913" d="M.582,232.634a.522.522,0,0,0-.553.49c-.019.324-.029.654-.029.981q0,.067,0,.133a.522.522,0,0,0,.522.518h0a.522.522,0,0,0,.518-.526c0-.042,0-.084,0-.126,0-.305.009-.614.027-.918A.522.522,0,0,0,.582,232.634Z" transform="translate(0 -232.633)" fill="#ed9f15"/>
        </g>
      </g>
      <g id="Group_46840" data-name="Group 46840" transform="translate(6.865 19.61)">
        <g id="Group_46839" data-name="Group 46839">
          <path id="Path_53914" data-name="Path 53914" d="M110.72,453.625c-.3-.174-.6-.36-.883-.554a.522.522,0,1,0-.586.865c.307.208.625.407.945.593a.522.522,0,1,0,.524-.9Z" transform="translate(-109.021 -452.981)" fill="#ed9f15"/>
        </g>
      </g>
      <g id="Group_46842" data-name="Group 46842" transform="translate(2.394 14.991)">
        <g id="Group_46841" data-name="Group 46841">
          <path id="Path_53915" data-name="Path 53915" d="M39.564,380.736c-.2-.279-.4-.569-.586-.862a.522.522,0,0,0-.884.557c.2.313.408.623.627.922a.522.522,0,0,0,.843-.617Z" transform="translate(-38.014 -379.63)" fill="#ed9f15"/>
        </g>
      </g>
      <g id="Group_46844" data-name="Group 46844" transform="translate(4.39 17.532)">
        <g id="Group_46843" data-name="Group 46843">
          <path id="Path_53916" data-name="Path 53916" d="M71.366,420.866c-.257-.232-.51-.475-.751-.724a.522.522,0,1,0-.75.727c.257.266.527.526.8.774a.522.522,0,1,0,.7-.776Z" transform="translate(-69.718 -419.983)" fill="#ed9f15"/>
        </g>
      </g>
      <g id="Group_46846" data-name="Group 46846" transform="translate(1.271)">
        <g id="Group_46845" data-name="Group 46845">
          <path id="Path_53917" data-name="Path 53917" d="M21.163,141.593a.522.522,0,0,0-.7.248c-.082.173-.162.349-.238.524a.522.522,0,1,0,.959.414c.071-.164.145-.329.222-.49A.522.522,0,0,0,21.163,141.593Z" transform="translate(-20.186 -141.542)" fill="#ed9f15"/>
        </g>
      </g>
    </g>
    <path id="Path_53948" data-name="Path 53948" d="M206.13,103.869a.6.6,0,0,0,.6.6h4.972a2.5,2.5,0,0,1-2.423,1.894h-2.339a.692.692,0,0,0-.5,1.173l4.051,4.2a.6.6,0,1,0,.868-.837l-3.213-3.334h1.132a3.707,3.707,0,0,0,3.652-3.1h.781a.6.6,0,1,0,0-1.205h-.781a3.692,3.692,0,0,0-.921-1.894h1.7a.6.6,0,0,0,0-1.205h-6.983a.6.6,0,0,0,0,1.205h2.55a2.5,2.5,0,0,1,2.423,1.894h-4.972A.6.6,0,0,0,206.13,103.869Z" transform="translate(-191.817 -87.264)" fill="#1700ba"/>
    <text id="GST_" data-name="GST " transform="translate(59 28)" fill="#1700ba" font-size="24" font-family="LEMONMILK-Regular, LEMON MILK" letter-spacing="0.02em"><tspan x="-29.032" y="0">GST</tspan><tspan y="0" font-family="Comfortaa-Bold, Comfortaa" font-weight="700"> </tspan></text>
    <text id="Claim" transform="translate(117 27)" fill="#1700ba" font-size="24" font-family="Comfortaa" letter-spacing="0.02em"><tspan x="-33.069" y="0">Claim</tspan></text>
    <path id="Path_53952" data-name="Path 53952" d="M12217.979,9234.153v5.657h-5.656Z" transform="translate(-13707.203 -6723.921) rotate(-11)" fill="#1700ba"/>
  </g>
</svg>
